<svg xmlns="http://www.w3.org/2000/svg" width="24" height="14" viewBox="0 0 24 14"><g><g><path fill="#fff" d="M23.843 7.323C23.613 7.596 18.14 14 12 14 5.859 14 .387 7.596.156 7.323a.504.504 0 0 1 0-.647C.386 6.403 5.86 0 12 0c7.156 0 11.683 6.442 11.871 6.717a.502.502 0 0 1-.028.607zm-1.025-.35C21.825 5.703 17.759.999 12 .999c-4.93 0-9.606 4.71-10.793 6C2.397 8.29 7.077 13 12 13c4.964 0 9.672-4.778 10.818-6.027zm-6.832.026C15.986 9.205 14.198 11 12 11 9.8 11 8.013 9.205 8.013 7c0-2.205 1.788-4 3.987-4a3.998 3.998 0 0 1 3.986 4zm-.996 0A3 3 0 0 0 12 4a3 3 0 0 0-2.99 3c0 1.655 1.341 3 2.99 3a2.999 2.999 0 0 0 2.99-3z"/></g></g></svg>