<svg xmlns="http://www.w3.org/2000/svg" width="19" height="23" viewBox="0 0 19 23"><defs><linearGradient id="e3g5a" x1="7.98" x2="10.25" y1="-.01" y2="22.99" gradientUnits="userSpaceOnUse"><stop offset="0" stop-color="#0074c3"/><stop offset="1" stop-color="#64b9db"/></linearGradient></defs><g><g><path fill="#006aa0" d="M5.903 10.934C4.19 8.865 4.475 5.321 4.506 4.984c.111-2.558 1.25-3.77 2.184-4.34.93-.565 1.9-.653 2.393-.653h.075c.899.025 1.704.25 2.393.676.925.567 2.046 1.778 2.157 4.317.031.337.316 3.881-1.397 5.95-.778.936-1.832 1.427-3.135 1.454h-.142c-1.304-.027-2.358-.518-3.131-1.454zm.894-.855c.556.675 1.307 1.014 2.286 1.021h.044c.983-.007 1.73-.346 2.29-1.021 1.415-1.702 1.104-4.943 1.1-4.974-.005-.01-.005-.028-.005-.04-.138-3.232-2.18-3.751-3.38-3.78h-.054c-.97 0-3.233.37-3.38 3.78 0 .009-.005.024-.005.04-.004.025-.307 3.28 1.104 4.974zm11.235 10.339a.647.647 0 0 1-.232.301c-.133.087-3.331 2.274-8.682 2.274-5.35 0-8.548-2.182-8.682-2.274a.62.62 0 0 1-.231-.301c-.236-.64-.231-1.912-.227-2.157v-.015c.004-.038.004-.076.004-.12.027-.941.085-3.143 2.016-3.857.013-.001.026-.007.044-.013 2.015-.548 3.674-1.782 3.691-1.797a.572.572 0 0 1 .837.157c.19.291.125.69-.147.89-.076.057-1.846 1.38-4.061 1.988-1.036.4-1.152 1.584-1.183 2.672 0 .042-.004.08-.004.117-.01.426.022 1.09.093 1.47.725.442 3.567 1.958 7.846 1.958 4.296 0 7.12-1.512 7.841-1.95.071-.382.098-1.044.094-1.471-.005-.04-.005-.08-.005-.12-.031-1.087-.147-2.271-1.183-2.67-2.215-.609-3.985-1.93-4.061-1.988a.666.666 0 0 1-.147-.891.576.576 0 0 1 .837-.158c.017.014 1.685 1.251 3.691 1.8.014.005.031.006.045.012 1.93.708 1.988 2.91 2.014 3.855 0 .043.005.08.005.12v.016c.004.246.009 1.519-.213 2.152z"/><path fill="url(#e3g5a)" d="M5.903 10.934C4.19 8.865 4.475 5.321 4.506 4.984c.111-2.558 1.25-3.77 2.184-4.34.93-.565 1.9-.653 2.393-.653h.075c.899.025 1.704.25 2.393.676.925.567 2.046 1.778 2.157 4.317.031.337.316 3.881-1.397 5.95-.778.936-1.832 1.427-3.135 1.454h-.142c-1.304-.027-2.358-.518-3.131-1.454zm.894-.855c.556.675 1.307 1.014 2.286 1.021h.044c.983-.007 1.73-.346 2.29-1.021 1.415-1.702 1.104-4.943 1.1-4.974-.005-.01-.005-.028-.005-.04-.138-3.232-2.18-3.751-3.38-3.78h-.054c-.97 0-3.233.37-3.38 3.78 0 .009-.005.024-.005.04-.004.025-.307 3.28 1.104 4.974zm11.235 10.339a.647.647 0 0 1-.232.301c-.133.087-3.331 2.274-8.682 2.274-5.35 0-8.548-2.182-8.682-2.274a.62.62 0 0 1-.231-.301c-.236-.64-.231-1.912-.227-2.157v-.015c.004-.038.004-.076.004-.12.027-.941.085-3.143 2.016-3.857.013-.001.026-.007.044-.013 2.015-.548 3.674-1.782 3.691-1.797a.572.572 0 0 1 .837.157c.19.291.125.69-.147.89-.076.057-1.846 1.38-4.061 1.988-1.036.4-1.152 1.584-1.183 2.672 0 .042-.004.08-.004.117-.01.426.022 1.09.093 1.47.725.442 3.567 1.958 7.846 1.958 4.296 0 7.12-1.512 7.841-1.95.071-.382.098-1.044.094-1.471-.005-.04-.005-.08-.005-.12-.031-1.087-.147-2.271-1.183-2.67-2.215-.609-3.985-1.93-4.061-1.988a.666.666 0 0 1-.147-.891.576.576 0 0 1 .837-.158c.017.014 1.685 1.251 3.691 1.8.014.005.031.006.045.012 1.93.708 1.988 2.91 2.014 3.855 0 .043.005.08.005.12v.016c.004.246.009 1.519-.213 2.152z"/></g></g></svg>