<svg xmlns="http://www.w3.org/2000/svg" width="21" height="24" viewBox="0 0 21 24"><defs><linearGradient id="99v5a" x1="9.17" x2="11.16" y1=".05" y2="23.89" gradientUnits="userSpaceOnUse"><stop offset="0" stop-color="#0074c3"/><stop offset="1" stop-color="#64b9db"/></linearGradient></defs><g><g><path fill="#006aa0" d="M19.604 18.151c.427.56.612 1.183.539 1.804-.073.614-.394 1.178-.932 1.635-.234.198-.471.385-.703.562-.339.263-.662.513-.95.793-.006.011-.016.016-.022.023-.83.733-1.813 1.025-2.925.883-.097-.012-.202-.032-.303-.047-1.638-.32-3.04-1.148-4.084-1.833-2.727-1.823-5.022-4.2-6.821-7.077C1.92 12.508.994 10.345.473 8.068.26 7.136.007 5.729.295 4.288a3.67 3.67 0 0 1 1.32-2.183L3.455.602l.011-.01c.539-.416 1.137-.6 1.725-.527.587.075 1.116.401 1.526.94.278.338.543.697.796 1.045.125.178.26.357.391.53l1.154 1.529c.887 1.17.726 2.527-.41 3.445-.15.122-.303.251-.454.374-.401.33-.813.67-1.252.99.213.713.54 1.43 1.048 2.291 1.055 1.74 2.206 3.126 3.52 4.24.13.112.283.215.446.331.112.074.23.158.347.245l1.708-1.377c.546-.445 1.146-.632 1.738-.562.597.077 1.13.42 1.537.982zm-1.037.824l-2.327-3.086c-.005-.003-.005-.003-.01-.009-.128-.188-.35-.413-.65-.453-.303-.034-.587.134-.77.283l-1.85 1.495c-.092.075-.374.308-.773.253a1.048 1.048 0 0 1-.462-.188c-.018-.007-.036-.028-.054-.041-.129-.107-.283-.211-.446-.323a6.534 6.534 0 0 1-.552-.408c-1.426-1.208-2.67-2.709-3.8-4.575l-.003-.006c-.618-1.054-1.004-1.922-1.245-2.823-.002-.013-.006-.026-.009-.048-.053-.291-.08-.723.385-1.103.006-.009.016-.009.027-.015.465-.338.898-.69 1.354-1.064.156-.121.307-.25.465-.379.573-.46.63-.951.183-1.543L6.876 3.419c-.134-.188-.27-.367-.4-.546-.256-.351-.5-.68-.76-1-.005-.01-.01-.012-.013-.02-.136-.179-.36-.4-.662-.44-.246-.028-.511.062-.775.262l-1.844 1.49c-.448.362-.722.82-.84 1.4-.18.903-.131 1.885.17 3.187.486 2.129 1.36 4.159 2.758 6.418 1.698 2.71 3.861 4.953 6.426 6.664.938.62 2.199 1.366 3.618 1.644.071.013.148.026.22.035.752.093 1.355-.086 1.906-.567a13.2 13.2 0 0 1 1.047-.876c.232-.181.448-.352.66-.532-.005.002-.005 0 0 0 .554-.467.616-.99.18-1.563z"/><path fill="url(#99v5a)" d="M19.604 18.151c.427.56.612 1.183.539 1.804-.073.614-.394 1.178-.932 1.635-.234.198-.471.385-.703.562-.339.263-.662.513-.95.793-.006.011-.016.016-.022.023-.83.733-1.813 1.025-2.925.883-.097-.012-.202-.032-.303-.047-1.638-.32-3.04-1.148-4.084-1.833-2.727-1.823-5.022-4.2-6.821-7.077C1.92 12.508.994 10.345.473 8.068.26 7.136.007 5.729.295 4.288a3.67 3.67 0 0 1 1.32-2.183L3.455.602l.011-.01c.539-.416 1.137-.6 1.725-.527.587.075 1.116.401 1.526.94.278.338.543.697.796 1.045.125.178.26.357.391.53l1.154 1.529c.887 1.17.726 2.527-.41 3.445-.15.122-.303.251-.454.374-.401.33-.813.67-1.252.99.213.713.54 1.43 1.048 2.291 1.055 1.74 2.206 3.126 3.52 4.24.13.112.283.215.446.331.112.074.23.158.347.245l1.708-1.377c.546-.445 1.146-.632 1.738-.562.597.077 1.13.42 1.537.982zm-1.037.824l-2.327-3.086c-.005-.003-.005-.003-.01-.009-.128-.188-.35-.413-.65-.453-.303-.034-.587.134-.77.283l-1.85 1.495c-.092.075-.374.308-.773.253a1.048 1.048 0 0 1-.462-.188c-.018-.007-.036-.028-.054-.041-.129-.107-.283-.211-.446-.323a6.534 6.534 0 0 1-.552-.408c-1.426-1.208-2.67-2.709-3.8-4.575l-.003-.006c-.618-1.054-1.004-1.922-1.245-2.823-.002-.013-.006-.026-.009-.048-.053-.291-.08-.723.385-1.103.006-.009.016-.009.027-.015.465-.338.898-.69 1.354-1.064.156-.121.307-.25.465-.379.573-.46.63-.951.183-1.543L6.876 3.419c-.134-.188-.27-.367-.4-.546-.256-.351-.5-.68-.76-1-.005-.01-.01-.012-.013-.02-.136-.179-.36-.4-.662-.44-.246-.028-.511.062-.775.262l-1.844 1.49c-.448.362-.722.82-.84 1.4-.18.903-.131 1.885.17 3.187.486 2.129 1.36 4.159 2.758 6.418 1.698 2.71 3.861 4.953 6.426 6.664.938.62 2.199 1.366 3.618 1.644.071.013.148.026.22.035.752.093 1.355-.086 1.906-.567a13.2 13.2 0 0 1 1.047-.876c.232-.181.448-.352.66-.532-.005.002-.005 0 0 0 .554-.467.616-.99.18-1.563z"/></g></g></svg>